<svg width="153" height="214" viewBox="0 0 153 214" fill="none" xmlns="http://www.w3.org/2000/svg">
<path d="M98.5008 213.003L12.5008 205.503C6.13325 204.749 2.57115 201.256 0.500839 195.503V149.003C0.643572 148.205 0.939896 147.861 2.00084 147.503H6.00084C6.858 146.331 7.30136 145.674 6.00084 144.503H2.00084C1.47485 144.669 1.1503 144.583 0.500839 144.003L1.00084 11.0026C4.03397 3.71751 7.30576 1.943 12.0008 0.502563L100.001 3.50256H105.001H117.001L146.001 17.5026C149.07 20.4941 151.024 21.5649 152.001 30.0026V158.503C152.189 161.595 151.998 163.49 150.501 167.503L121.001 203.503C117.146 206.923 118.405 207.648 109.001 213.003H98.5008Z" stroke="black"/>
</svg>
