<svg width="561" height="272" viewBox="0 0 561 272" fill="none" xmlns="http://www.w3.org/2000/svg">
<path d="M4 225.252C2.32686 224.323 1.61713 223.426 1 220.752L0.5 218.752V207.752C1.2876 205.601 2.34617 204.894 5 204.252V203.752V203.252V202.752V202.252H4H3H2.5L1.5 201.752L1 201.252V1.75186V0.751862L32 13.7519V14.2519H14.5V14.7519V200.252V201.252L13 202.252H11.5V203.252H10V204.252H15.5M4.5 225.252H7.5C9.19334 224.377 9.5626 223.804 10 222.752V222.252H10.5C12.184 223.89 13.0468 224.238 14.5 224.252C16.4029 224.289 17.1706 224.069 18 223.252C18.9572 222.317 19.3066 221.771 19.5 220.752V209.252L19 208.252C18.2326 206.288 17.4503 205.537 16 204.252" stroke="black"/>
<path d="M79.5 267.752V32.2519C85.178 32.8887 88.1716 32.6718 93.5 32.2519L112.5 30.2519V37.2519L93.5 43.7519L94 267.252H93V268.252L92.5 268.752L92 269.252H91.5H90.5V269.752V270.252H89V271.252H88.5H83V270.752L82.3177 270.252V269.752V268.752L82 269.252H81L80.5 268.752L80 268.252H79.5V267.752Z" stroke="black"/>
<path d="M435.5 161.752L436 10.2519V9.25186L454.5 8.75186V9.25186V162.752H450L450.5 163.252V164.252V165.252H457L458 166.252L459 167.752L460 169.252L460.5 170.752V179.252L460 180.752L459.5 182.252L459 182.752L458.5 183.752H453.5L452 182.252C451.524 183.179 451.116 183.631 450 184.252H445C443.035 182.539 442.322 181.641 441.5 178.752V169.252C442.811 166.932 443.583 166.124 445 165.252V164.752V163.252H444.5H443.5H443H440.5H439L438.5 162.252V161.752V161.252H437.5V161.752L437 162.252H436.5L435.5 161.752Z" stroke="black"/>
<path d="M486 8.25186C485.6 8.25186 483.167 7.25186 482 6.75186L546 2.25186L560 1.25186L559.5 222.252H558.5V222.752V223.252H556.5V224.252H554.5V224.752H551.5H550V224.252H548.5V223.752L549 223.252H548.5L548 222.752H547.5V222.252H546.5V221.752H545.5V220.752V13.7519L509.5 12.2519L508.5 11.2519H499.5L496 10.2519H493.5C493 9.91853 491.9 9.25186 491.5 9.25186H489C488.167 8.91853 486.4 8.25186 486 8.25186Z" stroke="black"/>
</svg>
