<svg width="568" height="272" viewBox="0 0 568 272" fill="none" xmlns="http://www.w3.org/2000/svg">
<path d="M0.5 0.00250244C0.890524 77.9121 1.5 199.503 1.5 199.503H2.5V201.003H3.5H4.5V201.503H5L5.5 202.003H6.5V202.503H7.5V204.003V204.503H6H4.5V205.003L3.5 205.503V207.003V207.503H2.5V220.003H3.5V222.003H4.5V224.003H5.5V224.503H6.5H10.5V223.503H11.5V222.503V221.503H12.5V222.503H13.5V223.503H14.5H19.5V222.503H20H20.5V221.503H21.5V207.503H20.5V205.503H19.5V204.503H18.5V203.503H11.5V202.503H14V201.503H16V200.503H17.5V199.503H18.5V14.5025H37.5" stroke="black"/>
<path d="M83 268.503L83.5 32.5025L85 33.5025L116 31.0025V37.5025L97.5 44.0025V267.503H96.5V268.503H94.5V269.003V270.503H93V271.503H84.5V270.503H83V270.003V269.503V268.503Z" stroke="black"/>
<path d="M440.5 160.503L440 10.5025V10.0025L457.5 9.0025V160.503V161.503H456.5V162.503H455.5V164.503H460.5V165.503H461.5V166.503H462.5V168.503H463.5V169.503V171.503H464.5V179.503H463.5V181.503H462.5V182.503H461.5V183.503H456.5V182.503H455V183.503H452.5V184.503H449.5V183.503H449H447.5V182.503H446.5V180.503H445.5V178.503H444.5V168.503H445.5V167.503V166.503H446.5V165.503H449.5V163.503H448.5V162.503H448H446.5V160.503H440.5Z" stroke="black"/>
<path d="M567.5 223.503V2.0025V1.5025L484.5 7.0025L488 7.5025V8.5025H493V9.5025H498V10.5025H502V11.5025H517.5V12.5025H533.5V13.5025H549.5V222.503H550.5V223.503H553.5V224.503H554.5V225.503H561.5V224.503H562.5V223.503H567.5Z" stroke="black"/>
</svg>
