<svg width="506" height="242" viewBox="0 0 506 242" fill="none" xmlns="http://www.w3.org/2000/svg">
<path d="M32.0495 2.5291V0.529102L58.5495 2.0291L88.5495 166.529V170.529H84.5495V171.529H83.5495V172.529H78.0495V171.529H76.5495V169.529H73.5495V168.529H73.0495L46.5495 22.5291H45.5495L20.5495 173.529V177.529H17.5495V178.529H15.5495V179.529H21.5495C22.9808 180.235 23.8558 180.5 24.5495 182.529V192.029C23.9208 194.669 23.4482 196.04 21.5495 197.529H15.5495V196.529H14.5495V195.529H14.0495H13.5495V196.529H12.5495V197.529H12.0495H9.54947C9.54947 197.529 7.54844 196.835 6.54947 195.529V194.529H5.54947V193.529V183.029C6.41937 181.245 7.03795 180.426 8.54947 179.529V178.529H6.04947V178.029H4.04947V172.529H2.04947L0.549469 171.529L30.5495 2.5291H32.0495Z" stroke="black"/>
<path d="M505.049 206.029L482.049 27.0291L481.549 44.0291C481.499 46.1466 481.299 47.4692 480.049 50.5291L450.549 86.5291L435.549 218.529H437.549V219.529H441.049V221.529H440.549C438.543 222.326 437.901 223.329 437.549 226.029V236.529L437.576 236.625C437.969 238.073 438.198 238.913 439.549 239.529H440.549H443.549H444.549V238.529H445.549V237.529H446.049H446.549V238.529H447.549V239.529H448.049L448.549 240.529H453.549C455.381 239.725 456.014 238.705 456.549 236.029V226.529C456.656 224.02 456.265 222.698 454.549 220.529H454.049H450.549V219.529H452.549V218.529H453.549L469.549 71.5291H470.549L488.549 208.529H490.549V209.529H492.549V210.529H493.549V211.529H500.549V210.529H503.049V209.529H504.549V208.529H505.049V206.029Z" stroke="black"/>
</svg>
