<svg width="466" height="217" viewBox="0 0 466 217" fill="none" xmlns="http://www.w3.org/2000/svg">
<path d="M25.5 2.23852V0.738516L55.5 12.7385H44.5V21.7385L65.5 193.739H64.5V194.739H62.5V195.739H60.5V196.739V197.739H61.5V199.739H62.5V202.739H63.5V210.739H62.5V211.739V213.739H61.5V214.739H55.5V212.739H54.5V213.739H54H53.5V214.739H52.5V215.739H47.5V214.739H46.5V212.739H45.5V207.739H44.5V201.739H45.5V197.739H46.5V196.739H47.5H51V195.739H48.5V193.739H47.5L33 61.7385H32L16.5 184.739V185.739H15H12.5V186.739V187.739H5V186.739H1.5V185.739H0.5V183.739H1.5L23.5 3.73852L25.5 2.23852Z" stroke="black"/>
<path d="M388.5 147.739L405 57.2385L419.5 55.7385L402.5 149.739H399.5V150.739H399V151.739H392V150.739H387.5V147.739H388.5Z" stroke="black"/>
<path d="M451 156.239L434 54.7385L449 53.7385L465.5 156.739V157.739H463.5V158.739H462.5V159.739V160.739H463.5V161.739H464.5V172.739H463.5V173.739H462.5V174.739H460V175.739H457.5V174.739H455.5V175.739H449.5V174.739H448.5V173.739H447.5V171.739H446.5V169.739V160.739H447.5V159.739H448.5V158.739H453V157.739H451.5V156.239H451Z" stroke="black"/>
</svg>
