<svg width="506" height="195" viewBox="0 0 506 195" fill="none" xmlns="http://www.w3.org/2000/svg">
<path d="M21.0647 132.08H22.0647M22.0647 132.08L23.0647 133.08L23.5647 133.58C24.254 134.253 24.5159 134.676 24.5647 135.58V146.08C23.6005 148.357 22.8743 149.484 21.0647 151.08H16.5647C15.8645 150.746 15.4707 150.553 14.5647 149.08H13.5647V150.08C12.5647 150.08 10.2647 150.08 9.0647 150.08C7.53119 150.118 6.80404 149.021 5.5647 146.58V137.08C6.64859 134.713 7.42886 133.756 9.0647 132.58V131.08H6.5647V130.58H4.5647V126.58H3.0647V125.58L2.0647 125.08L0.564697 124.58L18.5647 18.5804L38.5647 20.0804L20.5647 130.08H19.5647V131.08H19.0647H17.5647V132.08H22.0647Z" stroke="black"/>
<path d="M72.5647 122.08L54.0647 21.5804L70.5647 22.5804L88.5647 121.08V122.08V123.08H86.5647V124.08H84.0647V125.08H78.0647V124.08H76.5647C76.1647 124.08 76.398 123.414 76.5647 123.08H73.5647C73.1647 123.08 73.398 122.414 73.5647 122.08H72.5647Z" stroke="black"/>
<path d="M434.565 171.08L449.065 45.0804L482.565 4.08035C483.466 2.81546 483.766 1.9127 484.065 0.0803528L504.565 160.08V162.08H502.565V163.08H500.565V164.08H491.565V162.08H488.565V161.08H487.565V159.08H486.565L470.065 25.0804H468.565L452.565 170.08V172.08H450.565V173.08H449.565V174.08H454.065C454.815 174.669 455.222 175.015 455.565 176.08C456.626 182.06 456.401 185.017 455.565 190.08H454.565V191.08C454.277 192.581 453.817 193.223 452.565 194.08H448.565C447.303 193.488 446.899 192.914 446.565 191.58V190.08H445.565V191.08H444.565V192.08H443.565V193.08H439.565V192.08H438.065C437.193 191.74 436.872 191.177 436.565 189.58V180.08C437.462 177.372 438.124 176.291 439.565 175.08V174.08V173.08H437.565V172.08H435.565V171.08H434.565Z" stroke="black"/>
</svg>
