<svg width="599" height="192" viewBox="0 0 599 192" fill="none" xmlns="http://www.w3.org/2000/svg">
<path d="M0.5 129.545L19.5 0.545006L34.5 2.04501V2.54501L15.5 130.545H14V131.545V133.545H12.5V135.045H2.5V134.045H1.5V133.045H0.5V129.545Z" stroke="black"/>
<path d="M104 91.545L92.5 7.54501V7.04501L107.5 8.54501L118 90.045H118.5V92.545H117.272L117.5 93.545H116.5V94.045V94.545H115.5V95.545H107.5V94.545H106.5V92.545H105.5V91.545H104Z" stroke="black"/>
<path d="M505.5 186.045L519.5 39.545V39.045L535.5 31.545L521.5 184.545V186.545H520.5V187.545H519.5V189.545H517.5V190.545H507.5V189.545H506.5V188.545H505.5V187.545V186.045Z" stroke="black"/>
<path d="M583.5 140.545L570.5 15.545V15.045L585.5 8.04501L598.5 139.045V141.545H598H597V143.545H595V144.545H587.5V143.545H584.5V140.545H583.5Z" stroke="black"/>
</svg>
