<svg width="600" height="288" viewBox="0 0 600 288" fill="none" xmlns="http://www.w3.org/2000/svg">
<path d="M1.5 227.254L19.5 97.7542V97.2542L35.5 98.7542L16.5 228.254H14.5V230.254H13.5V231.254H11.5V232.254H3.5V231.254H2.5H1.5V230.254H0.5V227.254H1.5Z" stroke="black"/>
<path d="M105 187.254L93 103.754L108 105.254L119.5 186.254V189.254H118.5V190.254H118V191.254H117V192.254H107.5V191.254H106.5V189.254H105.5V187.254H105Z" stroke="black"/>
<path d="M509 38.2542H504V28.2542H511.5L512 27.7542L590 0.75415L588.5 8.75415L577 15.2542L598.5 238.254H597.5V239.254H596.5V240.254H595.5V241.254H587V240.254H585.5V238.254H585V237.254H584H583.5L563.5 42.2542H562.5L562 33.7542L559.5 30.2542L547 32.7542L521.5 283.254H519.5V285.254H519V286.254H517.5V287.254H507.5V286.254H506V285.254H505.5H504.5L528 43.2542L522.5 35.2542L509 38.2542Z" stroke="black"/>
</svg>
